<svg width="49" height="49" viewBox="0 0 49 49" fill="none" xmlns="http://www.w3.org/2000/svg">
<g id="lucide/mail-open">
<g id="Prog">
<path id="Ellipse 7486" d="M33.6343 24.5945C33.6343 29.6394 29.5446 33.729 24.4998 33.729C19.4549 33.729 15.3652 29.6394 15.3652 24.5945C15.3652 19.5496 19.4549 15.46 24.4998 15.46C29.5446 15.46 33.6343 19.5496 33.6343 24.5945ZM16.5113 24.5945C16.5113 29.0064 20.0878 32.583 24.4998 32.583C28.9117 32.583 32.4883 29.0064 32.4883 24.5945C32.4883 20.1826 28.9117 16.606 24.4998 16.606C20.0878 16.606 16.5113 20.1826 16.5113 24.5945Z" fill="#D3FF1F" fill-opacity="0.1"/>
<path id="Vector" d="M22.6357 25.1552L23.5498 26.2718L25.9913 23.2891" stroke="#D3FF1F" stroke-width="1.71272" stroke-linecap="round" stroke-linejoin="round"/>
<path id="Ellipse 7487" d="M24.9497 32.752C24.9791 33.2839 24.5707 33.7443 24.0386 33.7174C21.975 33.6131 19.9966 32.8109 18.4369 31.4269C16.6355 29.8284 15.5383 27.5832 15.384 25.1797C15.2297 22.7763 16.0308 20.4092 17.613 18.5935C19.1952 16.7777 21.4305 15.6603 23.8324 15.4844C26.2343 15.3084 28.6086 16.0882 30.4385 17.6539C32.2684 19.2197 33.4059 21.4448 33.6035 23.8451C33.8011 26.2453 33.0428 28.6265 31.4936 30.4704C30.1522 32.067 28.3119 33.1489 26.2855 33.5528C25.763 33.6569 25.2919 33.261 25.2434 32.7305C25.1949 32.2 25.5882 31.737 26.1075 31.6181C27.6272 31.2703 29.0025 30.4362 30.0164 29.2294C31.2385 27.7749 31.8366 25.8967 31.6808 24.0034C31.5249 22.11 30.6276 20.3549 29.1842 19.1198C27.7408 17.8847 25.868 17.2697 23.9734 17.4085C22.0787 17.5473 20.3156 18.4287 19.0675 19.8609C17.8195 21.2931 17.1876 23.1603 17.3093 25.0561C17.431 26.9519 18.2965 28.723 19.7174 29.9839C20.8964 31.0301 22.3786 31.6548 23.9327 31.7775C24.4638 31.8194 24.9204 32.2201 24.9497 32.752Z" fill="#D3FF1F"/>
</g>
<path id="Vector 30" d="M40.8662 32.8604V21.1982L35.035 27.7658L28.6513 32.1239H23.127L8.7024 22.8553L7.96582 27.2748L15.2702 34.5791H26.8713L40.8662 32.8604Z" fill="#0C0D09"/>
<path id="Vector_2" d="M42.9 17.3C43.9 18.06 44.5 19.24 44.5 20.5V40.5C44.5 41.5609 44.0786 42.5783 43.3284 43.3284C42.5783 44.0786 41.5609 44.5 40.5 44.5H8.5C7.43913 44.5 6.42172 44.0786 5.67157 43.3284C4.92143 42.5783 4.5 41.5609 4.5 40.5V20.5C4.5 19.879 4.64458 19.2666 4.92229 18.7111C5.2 18.1557 5.60322 17.6726 6.1 17.3L22.1 5.3C22.7924 4.78071 23.6345 4.5 24.5 4.5C25.3655 4.5 26.2076 4.78071 26.9 5.3L42.9 17.3Z" stroke="#D3FF1F" stroke-width="2.5" stroke-linecap="round" stroke-linejoin="round"/>
<path id="Vector_3" d="M44.5 20.5L26.56 31.9C25.9425 32.2869 25.2286 32.492 24.5 32.492C23.7714 32.492 23.0575 32.2869 22.44 31.9L4.5 20.5" stroke="#D3FF1F" stroke-width="2.5" stroke-linecap="round" stroke-linejoin="round"/>
</g>
</svg>
