<svg width="49" height="49" viewBox="0 0 49 49" fill="none" xmlns="http://www.w3.org/2000/svg">
<g id="Prog">
<path id="Ellipse 7486" d="M49 24.5C49 38.031 38.031 49 24.5 49C10.969 49 0 38.031 0 24.5C0 10.969 10.969 0 24.5 0C38.031 0 49 10.969 49 24.5ZM3.07384 24.5C3.07384 36.3333 12.6667 45.9262 24.5 45.9262C36.3333 45.9262 45.9262 36.3333 45.9262 24.5C45.9262 12.6667 36.3333 3.07384 24.5 3.07384C12.6667 3.07384 3.07384 12.6667 3.07384 24.5Z" fill="#D3FF1F" fill-opacity="0.1"/>
<path id="Vector" d="M19.5 26.0051L21.9515 29L28.5 21" stroke="#D3FF1F" stroke-width="2" stroke-linecap="round" stroke-linejoin="round"/>
<path id="Ellipse 7487" d="M49 24.5C49 38.031 38.031 49 24.5 49C10.969 49 0 38.031 0 24.5C0 10.969 10.969 0 24.5 0C38.031 0 49 10.969 49 24.5ZM3.07384 24.5C3.07384 36.3333 12.6667 45.9262 24.5 45.9262C36.3333 45.9262 45.9262 36.3333 45.9262 24.5C45.9262 12.6667 36.3333 3.07384 24.5 3.07384C12.6667 3.07384 3.07384 12.6667 3.07384 24.5Z" fill="#D3FF1F"/>
</g>
</svg>
