<svg width="20" height="21" viewBox="0 0 20 21" fill="none" xmlns="http://www.w3.org/2000/svg">
<g id="vuesax/linear/verify" opacity="0.5">
<g id="vuesax/linear/verify_2">
<g id="verify">
<path id="Vector" d="M8.9584 2.33359C9.5334 1.84193 10.4751 1.84193 11.0584 2.33359L12.3751 3.46693C12.6251 3.68359 13.0917 3.85859 13.4251 3.85859H14.8417C15.7251 3.85859 16.4501 4.58359 16.4501 5.46693V6.88359C16.4501 7.20859 16.6251 7.68359 16.8417 7.93359L17.9751 9.25026C18.4667 9.82526 18.4667 10.7669 17.9751 11.3503L16.8417 12.6669C16.6251 12.9169 16.4501 13.3836 16.4501 13.7169V15.1336C16.4501 16.0169 15.7251 16.7419 14.8417 16.7419H13.4251C13.1001 16.7419 12.6251 16.9169 12.3751 17.1336L11.0584 18.2669C10.4834 18.7586 9.54173 18.7586 8.9584 18.2669L7.64173 17.1336C7.39173 16.9169 6.92506 16.7419 6.59173 16.7419H5.15006C4.26673 16.7419 3.54173 16.0169 3.54173 15.1336V13.7086C3.54173 13.3836 3.36673 12.9169 3.1584 12.6669L2.0334 11.3419C1.55007 10.7669 1.55007 9.83359 2.0334 9.25859L3.1584 7.93359C3.36673 7.68359 3.54173 7.21693 3.54173 6.89193V5.45859C3.54173 4.57526 4.26673 3.85026 5.15006 3.85026H6.59173C6.91673 3.85026 7.39173 3.67526 7.64173 3.45859L8.9584 2.33359Z" stroke="white" stroke-width="1.5" stroke-linecap="round" stroke-linejoin="round"/>
<path id="?" d="M9.26991 12.4916V11.6281C9.26991 11.2195 9.35398 10.862 9.52212 10.5556C9.69912 10.2492 9.90708 10.0078 10.146 9.83141C10.3938 9.65499 10.6372 9.48786 10.8761 9.33001C11.115 9.17217 11.3186 8.99111 11.4867 8.78684C11.6637 8.57328 11.7522 8.33187 11.7522 8.0626C11.7522 7.64478 11.6062 7.2873 11.3142 6.99018C11.0221 6.69306 10.6327 6.53986 10.146 6.53057C9.63274 6.53057 9.19912 6.70699 8.84513 7.05982C8.5 7.40337 8.30973 7.90476 8.27434 8.564H7C7.02655 7.53336 7.33628 6.7302 7.9292 6.15453C8.52212 5.57885 9.25664 5.29102 10.1327 5.29102C10.9823 5.29102 11.6726 5.56028 12.2035 6.09882C12.7345 6.62806 13 7.29659 13 8.10439C13 8.51293 12.9159 8.86576 12.7478 9.16288C12.5796 9.46 12.3761 9.69677 12.1372 9.87319C11.8982 10.0496 11.6593 10.2214 11.4204 10.3885C11.1814 10.5464 10.9735 10.7413 10.7965 10.9735C10.6283 11.2056 10.5442 11.4749 10.5442 11.7813V12.4776L9.26991 12.4916ZM10.5575 15.0264C10.3894 15.2028 10.1814 15.291 9.93363 15.291C9.68584 15.291 9.47788 15.2028 9.30973 15.0264C9.14159 14.8407 9.05752 14.6179 9.05752 14.3579C9.05752 14.0979 9.14159 13.8797 9.30973 13.7033C9.47788 13.5176 9.68584 13.4247 9.93363 13.4247C10.1814 13.4247 10.3894 13.5176 10.5575 13.7033C10.7345 13.8797 10.823 14.0979 10.823 14.3579C10.823 14.6179 10.7345 14.8407 10.5575 15.0264Z" fill="white"/>
</g>
</g>
</g>
</svg>
