<svg width="36" height="36" viewBox="0 0 36 36" fill="none" xmlns="http://www.w3.org/2000/svg">
<rect width="36" height="36" rx="12" fill="white" fill-opacity="0.04"/>
<rect x="0.5" y="0.5" width="35" height="35" rx="11.5" stroke="white" stroke-opacity="0.12"/>
<path d="M21.1248 25.5C21.1248 25.6658 21.059 25.8247 20.9418 25.9419C20.8246 26.0592 20.6656 26.125 20.4998 26.125H15.4998C15.3341 26.125 15.1751 26.0592 15.0579 25.9419C14.9407 25.8247 14.8748 25.6658 14.8748 25.5C14.8748 25.3342 14.9407 25.1753 15.0579 25.0581C15.1751 24.9408 15.3341 24.875 15.4998 24.875H20.4998C20.6656 24.875 20.8246 24.9408 20.9418 25.0581C21.059 25.1753 21.1248 25.3342 21.1248 25.5ZM25.3287 21.7453C24.8944 20.9984 24.2498 18.8852 24.2498 16.125C24.2498 14.4674 23.5913 12.8777 22.4192 11.7056C21.2471 10.5335 19.6574 9.875 17.9998 9.875C16.3422 9.875 14.7525 10.5335 13.5804 11.7056C12.4083 12.8777 11.7498 14.4674 11.7498 16.125C11.7498 18.8859 11.1045 20.9984 10.6709 21.7453C10.5602 21.9352 10.5015 22.1509 10.5007 22.3707C10.5 22.5905 10.5572 22.8066 10.6666 22.9973C10.776 23.1879 10.9338 23.3463 11.124 23.4565C11.3141 23.5667 11.53 23.6248 11.7498 23.625H24.2498C24.4696 23.6247 24.6853 23.5665 24.8754 23.4562C25.0655 23.346 25.2231 23.1875 25.3324 22.9969C25.4418 22.8063 25.4989 22.5903 25.4981 22.3705C25.4973 22.1508 25.4386 21.9351 25.328 21.7453H25.3287Z" fill="white"/>
<circle cx="24" cy="12" r="3.5" fill="#D3FF1F" stroke="black"/>
</svg>
