<svg width="20" height="20" viewBox="0 0 20 20" fill="none" xmlns="http://www.w3.org/2000/svg">
<g opacity="0.4">
<path d="M18.3332 9.99935C18.3332 5.40768 14.5915 1.66602 9.99984 1.66602C5.40817 1.66602 1.6665 5.40768 1.6665 9.99935C1.6665 12.416 2.70817 14.591 4.35817 16.116C4.35817 16.1243 4.35817 16.1243 4.34984 16.1327C4.43317 16.216 4.53317 16.2827 4.6165 16.3577C4.6665 16.3993 4.70817 16.441 4.75817 16.4743C4.90817 16.5993 5.07484 16.716 5.23317 16.8327C5.2915 16.8743 5.3415 16.9077 5.39984 16.9493C5.55817 17.0577 5.72484 17.1577 5.89984 17.2493C5.95817 17.2827 6.02484 17.3243 6.08317 17.3577C6.24984 17.4493 6.42484 17.5327 6.60817 17.6077C6.67484 17.641 6.7415 17.6743 6.80817 17.6993C6.9915 17.7743 7.17484 17.841 7.35817 17.8993C7.42484 17.9243 7.4915 17.9493 7.55817 17.966C7.75817 18.0243 7.95817 18.0743 8.15817 18.1243C8.2165 18.141 8.27484 18.1577 8.3415 18.166C8.57484 18.216 8.80817 18.2493 9.04984 18.2743C9.08317 18.2743 9.1165 18.2827 9.14984 18.291C9.43317 18.316 9.7165 18.3327 9.99984 18.3327C10.2832 18.3327 10.5665 18.316 10.8415 18.291C10.8748 18.291 10.9082 18.2827 10.9415 18.2743C11.1832 18.2493 11.4165 18.216 11.6498 18.166C11.7082 18.1577 11.7665 18.1327 11.8332 18.1243C12.0332 18.0743 12.2415 18.0327 12.4332 17.966C12.4998 17.941 12.5665 17.916 12.6332 17.8993C12.8165 17.8327 13.0082 17.7743 13.1832 17.6993C13.2498 17.6743 13.3165 17.641 13.3832 17.6077C13.5582 17.5327 13.7332 17.4493 13.9082 17.3577C13.9748 17.3243 14.0332 17.2827 14.0915 17.2493C14.2582 17.1493 14.4248 17.0577 14.5915 16.9493C14.6498 16.916 14.6998 16.8743 14.7582 16.8327C14.9248 16.716 15.0832 16.5993 15.2332 16.4743C15.2832 16.4327 15.3248 16.391 15.3748 16.3577C15.4665 16.2827 15.5582 16.2077 15.6415 16.1327C15.6415 16.1243 15.6415 16.1243 15.6332 16.116C17.2915 14.591 18.3332 12.416 18.3332 9.99935ZM14.1165 14.141C11.8582 12.6243 8.15817 12.6243 5.88317 14.141C5.5165 14.3827 5.2165 14.666 4.9665 14.9743C3.69984 13.691 2.9165 11.9327 2.9165 9.99935C2.9165 6.09102 6.0915 2.91602 9.99984 2.91602C13.9082 2.91602 17.0832 6.09102 17.0832 9.99935C17.0832 11.9327 16.2998 13.691 15.0332 14.9743C14.7915 14.666 14.4832 14.3827 14.1165 14.141Z" fill="white"/>
<path d="M10 5.77539C8.275 5.77539 6.875 7.17539 6.875 8.90039C6.875 10.5921 8.2 11.9671 9.95833 12.0171C9.98333 12.0171 10.0167 12.0171 10.0333 12.0171C10.05 12.0171 10.075 12.0171 10.0917 12.0171C10.1 12.0171 10.1083 12.0171 10.1083 12.0171C11.7917 11.9587 13.1167 10.5921 13.125 8.90039C13.125 7.17539 11.725 5.77539 10 5.77539Z" fill="white"/>
</g>
</svg>
