<svg width="20" height="20" viewBox="0 0 20 20" fill="none" xmlns="http://www.w3.org/2000/svg">
<g id="vuesax/linear/element-equal">
<g id="element-equal">
<path id="Vector" d="M18.3333 6.89102V3.52435C18.3333 2.19935 17.8 1.66602 16.475 1.66602H13.1083C11.7833 1.66602 11.25 2.19935 11.25 3.52435V6.89102C11.25 8.21602 11.7833 8.74935 13.1083 8.74935H16.475C17.8 8.74935 18.3333 8.21602 18.3333 6.89102Z" stroke="white" stroke-width="1.5" stroke-linecap="round" stroke-linejoin="round"/>
<path id="Vector_2" d="M8.74984 7.09935V3.31602C8.74984 2.14102 8.2165 1.66602 6.8915 1.66602H3.52484C2.19984 1.66602 1.6665 2.14102 1.6665 3.31602V7.09102C1.6665 8.27435 2.19984 8.74102 3.52484 8.74102H6.8915C8.2165 8.74935 8.74984 8.27435 8.74984 7.09935Z" stroke="white" stroke-width="1.5" stroke-linecap="round" stroke-linejoin="round"/>
<path id="Vector_3" d="M8.74984 16.475V13.1083C8.74984 11.7833 8.2165 11.25 6.8915 11.25H3.52484C2.19984 11.25 1.6665 11.7833 1.6665 13.1083V16.475C1.6665 17.8 2.19984 18.3333 3.52484 18.3333H6.8915C8.2165 18.3333 8.74984 17.8 8.74984 16.475Z" stroke="white" stroke-width="1.5" stroke-linecap="round" stroke-linejoin="round"/>
<path id="Vector_4" d="M12.5 12.916H17.5" stroke="white" stroke-width="1.5" stroke-linecap="round"/>
<path id="Vector_5" d="M12.5 16.25H17.5" stroke="white" stroke-width="1.5" stroke-linecap="round"/>
</g>
</g>
</svg>
