<svg width="20" height="21" viewBox="0 0 20 21" fill="none" xmlns="http://www.w3.org/2000/svg">
<g opacity="0.5" clip-path="url(#clip0_3013_11321)">
<path d="M16.6922 5.47432L13.5672 2.34932C13.5091 2.2913 13.4402 2.24529 13.3643 2.21392C13.2884 2.18255 13.2071 2.16644 13.125 2.1665H6.875C6.54348 2.1665 6.22554 2.2982 5.99112 2.53262C5.7567 2.76704 5.625 3.08498 5.625 3.4165V4.6665H4.375C4.04348 4.6665 3.72554 4.7982 3.49112 5.03262C3.2567 5.26704 3.125 5.58498 3.125 5.9165V17.1665C3.125 17.498 3.2567 17.816 3.49112 18.0504C3.72554 18.2848 4.04348 18.4165 4.375 18.4165H13.125C13.4565 18.4165 13.7745 18.2848 14.0089 18.0504C14.2433 17.816 14.375 17.498 14.375 17.1665V15.9165H15.625C15.9565 15.9165 16.2745 15.7848 16.5089 15.5504C16.7433 15.316 16.875 14.998 16.875 14.6665V5.9165C16.8751 5.8344 16.859 5.7531 16.8276 5.67722C16.7962 5.60135 16.7502 5.5324 16.6922 5.47432ZM10.625 15.2915H6.875C6.70924 15.2915 6.55027 15.2257 6.43306 15.1084C6.31585 14.9912 6.25 14.8323 6.25 14.6665C6.25 14.5007 6.31585 14.3418 6.43306 14.2246C6.55027 14.1074 6.70924 14.0415 6.875 14.0415H10.625C10.7908 14.0415 10.9497 14.1074 11.0669 14.2246C11.1842 14.3418 11.25 14.5007 11.25 14.6665C11.25 14.8323 11.1842 14.9912 11.0669 15.1084C10.9497 15.2257 10.7908 15.2915 10.625 15.2915ZM10.625 12.7915H6.875C6.70924 12.7915 6.55027 12.7257 6.43306 12.6084C6.31585 12.4912 6.25 12.3323 6.25 12.1665C6.25 12.0007 6.31585 11.8418 6.43306 11.7246C6.55027 11.6074 6.70924 11.5415 6.875 11.5415H10.625C10.7908 11.5415 10.9497 11.6074 11.0669 11.7246C11.1842 11.8418 11.25 12.0007 11.25 12.1665C11.25 12.3323 11.1842 12.4912 11.0669 12.6084C10.9497 12.7257 10.7908 12.7915 10.625 12.7915ZM15.625 14.6665H14.375V8.4165C14.3751 8.3344 14.359 8.25309 14.3276 8.17722C14.2962 8.10135 14.2502 8.0324 14.1922 7.97432L11.0672 4.84932C11.0091 4.7913 10.9402 4.74529 10.8643 4.71392C10.7884 4.68255 10.7071 4.66644 10.625 4.6665H6.875V3.4165H12.8664L15.625 6.1751V14.6665Z" fill="white"/>
</g>
<defs>
<clipPath id="clip0_3013_11321">
<rect width="20" height="20" fill="white" transform="translate(0 0.291504)"/>
</clipPath>
</defs>
</svg>
