<svg width="18" height="17" viewBox="0 0 18 17" fill="none" xmlns="http://www.w3.org/2000/svg">
<g id="elements">
<path id="Path" d="M4.83301 4.12435C8.07375 3.01324 9.9256 3.01324 13.1663 4.12435" stroke="white" stroke-width="1.2" stroke-linecap="round" stroke-linejoin="round"/>
<path id="Path_2" d="M4.83301 12.457C7.74967 13.5681 10.2497 13.5681 13.1663 12.457" stroke="white" stroke-width="1.2" stroke-linecap="round" stroke-linejoin="round"/>
<path id="Path_3" d="M6.3807 12.9785C6.3807 13.916 4.61321 15.791 4.15989 15.791C2.79896 15.791 1.5904 14.2282 0.985652 12.9785C0.3809 11.4157 0.532326 7.51008 2.34563 2.19727C3.66751 1.2457 4.99511 0.941016 6.3808 0.791016L7.33317 3.29102" stroke="white" stroke-width="1.2" stroke-linecap="round" stroke-linejoin="round"/>
<path id="Path_4" d="M11.6188 12.9785C11.6188 13.916 13.3863 15.791 13.8396 15.791C15.2006 15.791 16.4091 14.2282 17.0139 12.9785C17.6186 11.4157 17.4672 7.51008 15.6539 2.19727C14.332 1.2457 13.0044 0.941016 11.6187 0.791016L10.6663 3.29102" stroke="white" stroke-width="1.2" stroke-linecap="round" stroke-linejoin="round"/>
<path id="Vector" d="M5.25841 8.29102H5.25M12.75 8.29102H12.7416" stroke="white" stroke-width="1.2" stroke-linecap="round" stroke-linejoin="round"/>
</g>
</svg>
