<svg width="18" height="17" viewBox="0 0 18 17" fill="none" xmlns="http://www.w3.org/2000/svg">
  <g id="elements">
    <!-- Path 1 (Top horizontal line) -->
    <path id="Path1" d="M4.833 4.12435C8.07375 3.01324 9.9256 3.01324 13.1663 4.12435" stroke="white" stroke-width="1.2" stroke-linecap="round" stroke-linejoin="round"/>
    
    <!-- Path 2 (Bottom horizontal line) -->
    <path id="Path2" d="M4.833 12.457C7.74967 13.5681 10.2497 13.5681 13.1663 12.457" stroke="white" stroke-width="1.2" stroke-linecap="round" stroke-linejoin="round"/>
    
    <!-- Path 3 (Left user profile) -->
    <path id="Path3" d="M6.5 6.791a1.5 1.5 0 1 1-3 0 1.5 1.5 0 0 1 3 0Zm-1.5 3.5a3.5 3.5 0 0 0-3.5 3.5v1h7v-1a3.5 3.5 0 0 0-3.5-3.5Z" stroke="white" stroke-width="1.2" stroke-linecap="round" stroke-linejoin="round"/>
    
    <!-- Path 4 (Right user profile) -->
    <path id="Path4" d="M14.5 6.791a1.5 1.5 0 1 1-3 0 1.5 1.5 0 0 1 3 0Zm-1.5 3.5a3.5 3.5 0 0 0-3.5 3.5v1h7v-1a3.5 3.5 0 0 0-3.5-3.5Z" stroke="white" stroke-width="1.2" stroke-linecap="round" stroke-linejoin="round"/>
  </g>
</svg>